<svg width="298" height="96" viewBox="0 0 298 96" fill="none" xmlns="http://www.w3.org/2000/svg">
<g clip-path="url(#clip0_19_101)">
<path fill-rule="evenodd" clip-rule="evenodd" d="M1.14484 58.4011H35.1886V76.1851C35.1886 79.9275 41.0051 79.9348 41.0051 76.1851V58.4011H55.0627V75.1316L45.5634 95.9233C23.7196 94.8399 5.7207 79.1459 1.14484 58.4011Z" fill="white"/>
<path fill-rule="evenodd" clip-rule="evenodd" d="M75.4263 87.3494C68.6789 92.0774 60.6584 95.1035 51.9806 95.8057L59.1531 80.1064C59.8692 78.5384 60.8359 76.9489 60.8791 75.2053C60.9265 73.2452 60.8791 71.2783 60.8791 69.3168V58.4011H75.4263V87.3494Z" fill="white"/>
<path fill-rule="evenodd" clip-rule="evenodd" d="M94.8189 58.4011C92.7488 67.7875 87.9299 76.1404 81.2425 82.5648V58.4011H94.8189Z" fill="white"/>
<path fill-rule="evenodd" clip-rule="evenodd" d="M95.2714 39.9019C95.7312 42.5326 95.9637 45.2349 95.9637 47.9915C95.9637 49.5395 95.8903 51.0704 95.7397 52.5834H81.2425V39.9019H95.2714Z" fill="white"/>
<path fill-rule="evenodd" clip-rule="evenodd" d="M0.692329 39.9019H35.1886V52.5834H0.223718C0.0731917 51.0704 0 49.5395 0 47.9915C0 45.2349 0.232234 42.5326 0.692329 39.9019Z" fill="white"/>
<path fill-rule="evenodd" clip-rule="evenodd" d="M55.0627 52.5834V39.9019H41.0051V52.5834H55.0627Z" fill="white"/>
<path fill-rule="evenodd" clip-rule="evenodd" d="M75.4263 39.9019H60.8791V52.5834H75.4263V39.9019Z" fill="white"/>
<path fill-rule="evenodd" clip-rule="evenodd" d="M86.6143 19.534C89.8236 23.8791 92.3154 28.7864 93.9099 34.0841H81.2425V19.534H86.6143Z" fill="white"/>
<path fill-rule="evenodd" clip-rule="evenodd" d="M9.3494 19.534H35.1886V34.0841H2.05371C3.65242 28.7878 6.14186 23.8784 9.3494 19.534Z" fill="white"/>
<path fill-rule="evenodd" clip-rule="evenodd" d="M41.0051 19.534V34.0841H55.0627V19.534H41.0051Z" fill="white"/>
<path fill-rule="evenodd" clip-rule="evenodd" d="M75.4263 19.534H60.8791V34.0841H75.4263V19.534Z" fill="white"/>
<path fill-rule="evenodd" clip-rule="evenodd" d="M81.2425 13.7165V13.4193L81.5546 13.7165H81.2425Z" fill="white"/>
<path fill-rule="evenodd" clip-rule="evenodd" d="M35.1886 13.7165H14.4095C20.1261 8.1059 27.2423 3.91942 35.1886 1.73859V13.7165Z" fill="white"/>
<path fill-rule="evenodd" clip-rule="evenodd" d="M60.8791 1.76806C66.1514 3.23315 71.0578 5.57629 75.4263 8.63494V13.7165H60.8791V1.76806Z" fill="white"/>
<path fill-rule="evenodd" clip-rule="evenodd" d="M41.0051 0.510849C43.2837 0.171741 45.6127 0 47.9817 0C50.3881 0 52.7528 0.177036 55.0627 0.524201V13.7165H41.0051V0.510849Z" fill="white"/>
<path d="M115.191 62.1456C116.045 62.1456 116.673 62.3979 117.079 62.9051C117.484 63.4125 117.688 64.0942 117.688 64.9471V65.2526H116.503V64.8838C116.503 64.3706 116.402 63.9758 116.199 63.6977C115.996 63.421 115.67 63.2813 115.223 63.2813C114.774 63.2813 114.449 63.421 114.246 63.6977C114.044 63.9758 113.942 64.3665 113.942 64.8679C113.942 65.283 114.035 65.6477 114.222 65.9559C114.408 66.2658 114.64 66.551 114.918 66.8135C115.197 67.0743 115.498 67.3308 115.823 67.5801C116.149 67.8322 116.45 68.1075 116.728 68.4059C117.005 68.7056 117.237 69.0443 117.424 69.4232C117.611 69.8008 117.703 70.2534 117.703 70.775C117.703 71.6296 117.499 72.3113 117.088 72.8184C116.676 73.3242 116.039 73.5765 115.175 73.5765C114.31 73.5765 113.675 73.3242 113.27 72.8184C112.864 72.3113 112.661 71.6296 112.661 70.775V70.135H113.831V70.8399C113.831 71.3515 113.937 71.7463 114.15 72.023C114.364 72.3011 114.695 72.4409 115.143 72.4409C115.591 72.4409 115.921 72.3011 116.136 72.023C116.348 71.7463 116.456 71.3515 116.456 70.8399C116.456 70.4233 116.362 70.0632 116.175 69.7591C115.989 69.455 115.756 69.1711 115.479 68.9087C115.201 68.6494 114.903 68.3927 114.583 68.1407C114.263 67.8913 113.963 67.616 113.687 67.3179C113.409 67.0181 113.177 66.6795 112.989 66.2989C112.802 65.9214 112.71 65.4704 112.71 64.9471C112.71 64.0824 112.911 63.3994 113.318 62.898C113.723 62.3949 114.347 62.1456 115.191 62.1456Z" fill="white"/>
<path d="M120.137 68.4222V73.466H118.888V62.2573H120.137V67.2997H122.89V62.2573H124.14V73.466H122.89V68.4222H120.137Z" fill="white"/>
<path d="M129.502 67.2209V68.3421H126.764V72.3297H130.127V73.4653H125.516V62.2577H130.127V63.3934H126.764V67.2209H129.502Z" fill="white"/>
<path d="M136.465 62.2573C137.341 62.2573 137.965 62.4619 138.338 62.8742C138.711 63.2849 138.898 63.9061 138.898 64.739V65.2678C138.898 65.8659 138.802 66.3473 138.61 66.7161C138.419 67.0835 138.077 67.343 137.586 67.4928C138.13 67.6427 138.517 67.9252 138.746 68.3416C138.976 68.7581 139.092 69.2756 139.092 69.8951V70.839C139.092 71.6821 138.883 72.3322 138.466 72.7846C138.051 73.2386 137.404 73.4649 136.53 73.4649H133.952V62.2573H136.465ZM136.161 67.0131C136.664 67.0131 137.038 66.9106 137.29 66.709C137.541 66.5057 137.667 66.1108 137.667 65.5229V64.8672C137.667 64.3656 137.573 63.9938 137.386 63.7546C137.198 63.514 136.881 63.3943 136.433 63.3943H135.201V67.0131H136.161ZM136.53 72.3292C137.414 72.3292 137.858 71.822 137.858 70.8075V69.8159C137.858 69.1847 137.733 68.7496 137.482 68.5104C137.231 68.2696 136.834 68.1501 136.289 68.1501H135.201V72.3292H136.53Z" fill="white"/>
<path d="M141.508 70.8241C141.508 71.3358 141.612 71.7334 141.821 72.0159C142.028 72.2984 142.362 72.4411 142.821 72.4411C143.269 72.4411 143.597 72.2984 143.806 72.0159C144.014 71.7334 144.117 71.3358 144.117 70.8241V62.2568H145.286V70.7594C145.286 71.6139 145.083 72.2984 144.678 72.8173C144.273 73.3346 143.637 73.594 142.773 73.594C141.919 73.594 141.289 73.3346 140.884 72.8173C140.478 72.2984 140.276 71.6139 140.276 70.7594V62.2568H141.508V70.8241Z" fill="white"/>
<path d="M147.864 62.2582H146.615V73.4656H147.864V62.2582Z" fill="white"/>
<path d="M149.24 73.4653V62.258H150.489V72.3283H153.69V73.4653H149.24Z" fill="white"/>
<path d="M157.357 62.2573C158.232 62.2573 158.874 62.5052 159.286 63.0009C159.697 63.4981 159.901 64.1784 159.901 65.0431V70.6949C159.901 71.5596 159.697 72.2385 159.286 72.7284C158.874 73.2199 158.232 73.4649 157.357 73.4649H154.731V62.2573H157.357ZM157.341 72.3292C157.789 72.3292 158.122 72.1922 158.341 71.9199C158.56 71.6489 158.67 71.2571 158.67 70.7426V64.9796C158.67 64.4667 158.56 64.0746 158.341 63.8022C158.122 63.5299 157.783 63.3943 157.324 63.3943H155.98V72.3292H157.341Z" fill="white"/>
<path d="M163.52 62.1456C164.373 62.1456 165.002 62.3979 165.409 62.9051C165.813 63.4125 166.017 64.0942 166.017 64.9471V65.2526H164.832V64.8838C164.832 64.3706 164.731 63.9758 164.528 63.6977C164.325 63.421 163.999 63.2813 163.552 63.2813C163.103 63.2813 162.778 63.421 162.575 63.6977C162.372 63.9758 162.271 64.3665 162.271 64.8679C162.271 65.283 162.364 65.6477 162.552 65.9559C162.737 66.2658 162.97 66.551 163.248 66.8135C163.526 67.0743 163.827 67.3308 164.152 67.5801C164.478 67.8322 164.779 68.1075 165.057 68.4059C165.334 68.7056 165.566 69.0443 165.753 69.4232C165.94 69.8008 166.032 70.2534 166.032 70.775C166.032 71.6296 165.827 72.3113 165.417 72.8184C165.005 73.3242 164.368 73.5765 163.504 73.5765C162.639 73.5765 162.004 73.3242 161.599 72.8184C161.193 72.3113 160.99 71.6296 160.99 70.775V70.135H162.16V70.8399C162.16 71.3515 162.265 71.7463 162.478 72.023C162.693 72.3011 163.023 72.4409 163.471 72.4409C163.92 72.4409 164.25 72.3011 164.465 72.023C164.677 71.7463 164.783 71.3515 164.783 70.8399C164.783 70.4233 164.691 70.0632 164.504 69.7591C164.316 69.455 164.085 69.1711 163.808 68.9087C163.53 68.6494 163.232 68.3927 162.912 68.1407C162.59 67.8913 162.292 67.616 162.016 67.3179C161.737 67.0181 161.506 66.6795 161.318 66.2989C161.132 65.9214 161.039 65.4704 161.039 64.9471C161.039 64.0824 161.241 63.3994 161.647 62.898C162.052 62.3949 162.677 62.1456 163.52 62.1456Z" fill="white"/>
<path d="M171.779 66.1797C172.014 66.1797 172.233 66.2257 172.436 66.3164C172.638 66.4058 172.814 66.5269 172.964 66.6767C173.113 66.8266 173.233 67.0025 173.324 67.2058C173.415 67.4074 173.461 67.6264 173.461 67.8614C173.461 68.0962 173.415 68.3154 173.324 68.5171C173.233 68.7203 173.113 68.899 172.964 69.0546C172.814 69.2089 172.638 69.33 172.436 69.4135C172.233 69.4999 172.014 69.5431 171.779 69.5431C171.544 69.5431 171.325 69.4999 171.124 69.4135C170.919 69.33 170.742 69.2089 170.588 69.0546C170.432 68.899 170.313 68.7203 170.226 68.5171C170.141 68.3154 170.099 68.0962 170.099 67.8614C170.099 67.6264 170.141 67.4074 170.226 67.2058C170.313 67.0025 170.432 66.8266 170.588 66.6767C170.742 66.5269 170.919 66.4058 171.124 66.3164C171.325 66.2257 171.544 66.1797 171.779 66.1797Z" fill="white"/>
<path d="M180.072 62.1456C180.925 62.1456 181.556 62.3979 181.961 62.9051C182.367 63.4125 182.57 64.0942 182.57 64.9471V65.2526H181.384V64.8838C181.384 64.3706 181.283 63.9758 181.08 63.6977C180.877 63.421 180.552 63.2813 180.103 63.2813C179.656 63.2813 179.33 63.421 179.127 63.6977C178.925 63.9758 178.824 64.3665 178.824 64.8679C178.824 65.283 178.916 65.6477 179.104 65.9559C179.29 66.2658 179.523 66.551 179.8 66.8135C180.078 67.0743 180.379 67.3308 180.704 67.5801C181.03 67.8322 181.331 68.1075 181.609 68.4059C181.886 68.7056 182.118 69.0443 182.305 69.4232C182.492 69.8008 182.586 70.2534 182.586 70.775C182.586 71.6296 182.38 72.3113 181.969 72.8184C181.557 73.3242 180.921 73.5765 180.056 73.5765C179.192 73.5765 178.556 73.3242 178.151 72.8184C177.745 72.3113 177.543 71.6296 177.543 70.775V70.135H178.712V70.8399C178.712 71.3515 178.818 71.7463 179.032 72.023C179.245 72.3011 179.576 72.4409 180.024 72.4409C180.472 72.4409 180.802 72.3011 181.017 72.023C181.229 71.7463 181.337 71.3515 181.337 70.8399C181.337 70.4233 181.243 70.0632 181.056 69.7591C180.87 69.455 180.638 69.1711 180.36 68.9087C180.082 68.6494 179.784 68.3927 179.464 68.1407C179.144 67.8913 178.844 67.616 178.568 67.3179C178.29 67.0181 178.058 66.6795 177.87 66.2989C177.684 65.9214 177.589 65.4704 177.589 64.9471C177.589 64.0824 177.793 63.3994 178.199 62.898C178.605 62.3949 179.229 62.1456 180.072 62.1456Z" fill="white"/>
<path d="M185.018 68.4222V73.466H183.769V62.2573H185.018V67.2997H187.771V62.2573H189.021V73.466H187.771V68.4222H185.018Z" fill="white"/>
<path d="M194.383 67.2209V68.3421H191.645V72.3297H195.008V73.4653H190.398V62.2577H195.008V63.3934H191.645V67.2209H194.383Z" fill="white"/>
<path d="M201.187 62.1456C202.04 62.1456 202.669 62.3979 203.075 62.9051C203.48 63.4125 203.683 64.0942 203.683 64.9471V65.2526H202.499V64.8838C202.499 64.3706 202.398 63.9758 202.195 63.6977C201.992 63.421 201.666 63.2813 201.218 63.2813C200.77 63.2813 200.444 63.421 200.241 63.6977C200.038 63.9758 199.937 64.3665 199.937 64.8679C199.937 65.283 200.031 65.6477 200.218 65.9559C200.404 66.2658 200.636 66.551 200.914 66.8135C201.192 67.0743 201.492 67.3308 201.819 67.5801C202.143 67.8322 202.446 68.1075 202.724 68.4059C203 68.7056 203.232 69.0443 203.42 69.4232C203.607 69.8008 203.699 70.2534 203.699 70.775C203.699 71.6296 203.493 72.3113 203.084 72.8184C202.672 73.3242 202.035 73.5765 201.171 73.5765C200.306 73.5765 199.671 73.3242 199.266 72.8184C198.86 72.3113 198.658 71.6296 198.658 70.775V70.135H199.825V70.8399C199.825 71.3515 199.932 71.7463 200.145 72.023C200.36 72.3011 200.691 72.4409 201.139 72.4409C201.587 72.4409 201.917 72.3011 202.132 72.023C202.343 71.7463 202.452 71.3515 202.452 70.8399C202.452 70.4233 202.358 70.0632 202.17 69.7591C201.985 69.455 201.751 69.1711 201.475 68.9087C201.197 68.6494 200.898 68.3927 200.578 68.1407C200.257 67.8913 199.959 67.616 199.682 67.3179C199.404 67.0181 199.172 66.6795 198.985 66.2989C198.799 65.9214 198.704 65.4704 198.704 64.9471C198.704 64.0824 198.907 63.3994 199.313 62.898C199.718 62.3949 200.342 62.1456 201.187 62.1456Z" fill="white"/>
<path d="M208.87 67.2209V68.3421H206.132V72.3297H209.495V73.4653H204.884V62.2577H209.495V63.3934H206.132V67.2209H208.87Z" fill="white"/>
<path d="M213.24 62.2573C214.126 62.2573 214.763 62.4764 215.154 62.9132C215.543 63.3513 215.739 63.9866 215.739 64.8196V65.7319C215.739 66.35 215.626 66.8517 215.401 67.2364C215.178 67.6211 214.825 67.8877 214.345 68.0375C214.857 68.186 215.22 68.4614 215.433 68.8619C215.646 69.2625 215.753 69.7669 215.753 70.3751V72.1202C215.753 72.3667 215.765 72.6029 215.786 72.8336C215.806 73.0627 215.871 73.2731 215.978 73.4649H214.713C214.638 73.3049 214.585 73.132 214.553 72.9446C214.521 72.7586 214.505 72.4791 214.505 72.1043V70.3434C214.505 69.7137 214.364 69.2784 214.08 69.0392C213.798 68.797 213.394 68.6775 212.873 68.6775H211.993V73.4649H210.743V62.2573H213.24ZM212.921 67.5419C213.422 67.5419 213.811 67.4367 214.089 67.2292C214.365 67.0202 214.505 66.6123 214.505 66.0029V64.9305C214.505 64.419 214.406 64.0343 214.209 63.7776C214.011 63.5228 213.678 63.3943 213.209 63.3943H211.993V67.5419H212.921Z" fill="white"/>
<path d="M218.059 62.2573L219.884 72.0078L221.692 62.2573H222.845L220.749 73.4649H218.907L216.795 62.2573H218.059Z" fill="white"/>
<path d="M227.888 67.2209V68.3421H225.151V72.3297H228.512V73.4653H223.903V62.2577H228.512V63.3934H225.151V67.2209H227.888Z" fill="white"/>
<path d="M232.114 62.1456C232.967 62.1456 233.598 62.3979 234.003 62.9051C234.408 63.4125 234.613 64.0942 234.613 64.9471V65.2526H233.427V64.8838C233.427 64.3706 233.326 63.9758 233.123 63.6977C232.92 63.421 232.594 63.2813 232.146 63.2813C231.698 63.2813 231.372 63.421 231.169 63.6977C230.967 63.9758 230.865 64.3665 230.865 64.8679C230.865 65.283 230.959 65.6477 231.146 65.9559C231.332 66.2658 231.564 66.551 231.842 66.8135C232.12 67.0743 232.421 67.3308 232.747 67.5801C233.071 67.8322 233.374 68.1075 233.652 68.4059C233.928 68.7056 234.16 69.0443 234.347 69.4232C234.535 69.8008 234.627 70.2534 234.627 70.775C234.627 71.6296 234.421 72.3113 234.012 72.8184C233.6 73.3242 232.963 73.5765 232.098 73.5765C231.234 73.5765 230.599 73.3242 230.194 72.8184C229.787 72.3113 229.586 71.6296 229.586 70.775V70.135H230.754V70.8399C230.754 71.3515 230.859 71.7463 231.074 72.023C231.287 72.3011 231.619 72.4409 232.067 72.4409C232.515 72.4409 232.845 72.3011 233.059 72.023C233.271 71.7463 233.378 71.3515 233.378 70.8399C233.378 70.4233 233.286 70.0632 233.098 69.7591C232.912 69.455 232.681 69.1711 232.402 68.9087C232.124 68.6494 231.826 68.3927 231.506 68.1407C231.185 67.8913 230.887 67.616 230.61 67.3179C230.332 67.0181 230.1 66.6795 229.913 66.2989C229.727 65.9214 229.632 65.4704 229.632 64.9471C229.632 64.0824 229.835 63.3994 230.241 62.898C230.646 62.3949 231.27 62.1456 232.114 62.1456Z" fill="white"/>
<path d="M240.375 66.1797C240.61 66.1797 240.829 66.2257 241.032 66.3164C241.235 66.4058 241.411 66.5269 241.561 66.6767C241.709 66.8266 241.83 67.0025 241.921 67.2058C242.01 67.4074 242.056 67.6264 242.056 67.8614C242.056 68.0962 242.01 68.3154 241.921 68.5171C241.83 68.7203 241.709 68.899 241.561 69.0546C241.411 69.2089 241.235 69.33 241.032 69.4135C240.829 69.4999 240.61 69.5431 240.375 69.5431C240.14 69.5431 239.922 69.4999 239.719 69.4135C239.516 69.33 239.337 69.2089 239.183 69.0546C239.028 68.899 238.908 68.7203 238.823 68.5171C238.737 68.3154 238.695 68.0962 238.695 67.8614C238.695 67.6264 238.737 67.4074 238.823 67.2058C238.908 67.0025 239.028 66.8266 239.183 66.6767C239.337 66.5269 239.516 66.4058 239.719 66.3164C239.922 66.2257 240.14 66.1797 240.375 66.1797Z" fill="white"/>
<path d="M248.667 62.1456C249.52 62.1456 250.151 62.3979 250.556 62.9051C250.963 63.4125 251.166 64.0942 251.166 64.9471V65.2526H249.98V64.8838C249.98 64.3706 249.878 63.9758 249.676 63.6977C249.473 63.421 249.147 63.2813 248.699 63.2813C248.251 63.2813 247.925 63.421 247.724 63.6977C247.521 63.9758 247.42 64.3665 247.42 64.8679C247.42 65.283 247.512 65.6477 247.699 65.9559C247.885 66.2658 248.119 66.551 248.395 66.8135C248.673 67.0743 248.974 67.3308 249.299 67.5801C249.626 67.8322 249.927 68.1075 250.205 68.4059C250.481 68.7056 250.713 69.0443 250.901 69.4232C251.088 69.8008 251.182 70.2534 251.182 70.775C251.182 71.6296 250.976 72.3113 250.565 72.8184C250.153 73.3242 249.516 73.5765 248.652 73.5765C247.787 73.5765 247.152 73.3242 246.747 72.8184C246.341 72.3113 246.139 71.6296 246.139 70.775V70.135H247.307V70.8399C247.307 71.3515 247.413 71.7463 247.627 72.023C247.841 72.3011 248.172 72.4409 248.62 72.4409C249.068 72.4409 249.398 72.3011 249.613 72.023C249.824 71.7463 249.932 71.3515 249.932 70.8399C249.932 70.4233 249.839 70.0632 249.651 69.7591C249.464 69.455 249.234 69.1711 248.956 68.9087C248.678 68.6494 248.379 68.3927 248.059 68.1407C247.738 67.8913 247.44 67.616 247.163 67.3179C246.885 67.0181 246.653 66.6795 246.466 66.2989C246.28 65.9214 246.187 65.4704 246.187 64.9471C246.187 64.0824 246.388 63.3994 246.794 62.898C247.201 62.3949 247.825 62.1456 248.667 62.1456Z" fill="white"/>
<path d="M253.614 68.4222V73.466H252.365V62.2573H253.614V67.2997H256.367V62.2573H257.616V73.466H256.367V68.4222H253.614Z" fill="white"/>
<path d="M262.977 67.2209V68.3421H260.239V72.3297H263.601V73.4653H258.992V62.2577H263.601V63.3934H260.239V67.2209H262.977Z" fill="white"/>
<path d="M267.428 73.4653V62.258H268.676V72.3283H271.878V73.4653H267.428Z" fill="white"/>
<path d="M276.904 67.2209V68.3421H274.166V72.3297H277.528V73.4653H272.919V62.2577H277.528V63.3934H274.166V67.2209H276.904Z" fill="white"/>
<path d="M280.043 71.2085L279.611 73.4653H278.458L280.604 62.2577H282.412L284.557 73.4653H283.308L282.876 71.2085H280.043ZM280.203 70.1348H282.7L281.436 63.6657L280.203 70.1348Z" fill="white"/>
<path d="M288.255 62.2573C289.131 62.2573 289.774 62.5052 290.185 63.0009C290.595 63.4981 290.801 64.1784 290.801 65.0431V70.6949C290.801 71.5596 290.595 72.2385 290.185 72.7284C289.774 73.2199 289.131 73.4649 288.255 73.4649H285.629V62.2573H288.255ZM288.24 72.3292C288.688 72.3292 289.02 72.1922 289.239 71.9199C289.458 71.6489 289.568 71.2571 289.568 70.7426V64.9796C289.568 64.4667 289.458 64.0746 289.239 63.8022C289.02 63.5299 288.682 63.3943 288.224 63.3943H286.878V72.3292H288.24Z" fill="white"/>
<path d="M294.419 62.1456C295.272 62.1456 295.902 62.3979 296.308 62.9051C296.713 63.4125 296.916 64.0942 296.916 64.9471V65.2526H295.731V64.8838C295.731 64.3706 295.629 63.9758 295.428 63.6977C295.224 63.421 294.899 63.2813 294.451 63.2813C294.003 63.2813 293.677 63.421 293.474 63.6977C293.271 63.9758 293.17 64.3665 293.17 64.8679C293.17 65.283 293.263 65.6477 293.451 65.9559C293.637 66.2658 293.87 66.551 294.147 66.8135C294.425 67.0743 294.726 67.3308 295.05 67.5801C295.377 67.8322 295.678 68.1075 295.955 68.4059C296.233 68.7056 296.465 69.0443 296.652 69.4232C296.839 69.8008 296.932 70.2534 296.932 70.775C296.932 71.6296 296.726 72.3113 296.315 72.8184C295.905 73.3242 295.268 73.5765 294.403 73.5765C293.539 73.5765 292.903 73.3242 292.498 72.8184C292.092 72.3113 291.889 71.6296 291.889 70.775V70.135H293.059V70.8399C293.059 71.3515 293.164 71.7463 293.377 72.023C293.592 72.3011 293.922 72.4409 294.371 72.4409C294.82 72.4409 295.149 72.3011 295.364 72.023C295.576 71.7463 295.684 71.3515 295.684 70.8399C295.684 70.4233 295.59 70.0632 295.403 69.7591C295.216 69.455 294.984 69.1711 294.707 68.9087C294.429 68.6494 294.131 68.3927 293.811 68.1407C293.49 67.8913 293.191 67.616 292.915 67.3179C292.635 67.0181 292.405 66.6795 292.218 66.2989C292.032 65.9214 291.937 65.4704 291.937 64.9471C291.937 64.0824 292.14 63.3994 292.546 62.898C292.951 62.3949 293.576 62.1456 294.419 62.1456Z" fill="white"/>
<path d="M207.527 34.4414H182.948C181.915 34.4414 181.078 33.6044 181.078 32.5709C181.078 31.5377 181.915 30.7004 182.948 30.7004H207.527C208.56 30.7004 209.397 31.5377 209.397 32.5709C209.397 33.6044 208.56 34.4414 207.527 34.4414Z" fill="white"/>
<path d="M245.756 47.6312C245.139 47.9065 244.54 48.2682 243.961 48.7192C243.38 49.1688 242.794 49.6617 242.2 50.1979C241.608 50.7338 240.994 51.2988 240.357 51.8925C239.721 52.4878 239.033 53.0396 238.296 53.5498C237.559 54.0627 236.755 54.5515 235.885 55.0167C235.015 55.4809 234.054 55.8916 233.001 56.2403C231.949 56.5905 230.789 56.8702 229.523 57.0763C228.256 57.2837 226.853 57.3861 225.314 57.3861C223.613 57.3861 222.078 57.0472 220.71 56.37C219.342 55.6927 218.173 54.7775 217.203 53.6276C216.232 52.4761 215.485 51.1388 214.961 49.6157C214.44 48.0909 214.177 46.4898 214.177 44.811C214.177 43.6422 214.303 42.3885 214.555 41.0498C214.807 39.7108 215.17 38.3447 215.643 36.954C216.115 35.5649 216.691 34.1771 217.373 32.7936C218.054 31.4102 218.827 30.083 219.69 28.8133C220.553 27.5437 221.502 26.3664 222.535 25.2798C223.57 24.1945 224.672 23.2479 225.845 22.4421C227.017 21.6366 228.252 21.004 229.55 20.5472C230.848 20.0919 232.198 19.8612 233.597 19.8612C234.505 19.8612 235.426 20.0226 236.358 20.3439C237.29 20.6653 238.13 21.1612 238.873 21.8284C239.617 22.4969 240.225 23.343 240.699 24.3633C241.171 25.385 241.406 26.5897 241.406 27.9761C241.406 28.9084 241.258 29.8509 240.963 30.8036C240.666 31.756 240.259 32.6697 239.744 33.5473C239.226 34.4221 238.618 35.2465 237.918 36.0145C237.218 36.7827 236.466 37.4499 235.658 38.0105C234.852 38.571 234.014 39.0163 233.143 39.342C232.273 39.6706 231.405 39.8349 230.534 39.8349C229.386 39.8349 228.53 39.6807 227.962 39.3722C227.395 39.0623 227.111 38.6185 227.111 38.0379C227.111 37.937 227.108 37.8173 227.101 37.679C227.095 37.5392 227.092 37.3937 227.092 37.2439C227.092 37.0162 227.105 36.7811 227.13 36.5348C227.154 36.2882 227.206 36.0649 227.281 35.8632C227.357 35.6613 227.468 35.4972 227.612 35.3717C227.758 35.2465 227.955 35.1816 228.209 35.1816C228.359 35.1816 228.491 35.2046 228.605 35.2479C228.719 35.2925 228.844 35.34 228.984 35.3906C229.122 35.441 229.289 35.4885 229.484 35.5317C229.68 35.5764 229.929 35.598 230.232 35.598C231.039 35.598 231.854 35.4222 232.68 35.0676C233.507 34.7161 234.25 34.2174 234.911 33.5733C235.573 32.9319 236.116 32.1653 236.538 31.2762C236.96 30.3871 237.172 29.4071 237.172 28.3363C237.172 27.767 237.096 27.2281 236.944 26.7179C236.793 26.2078 236.547 25.7595 236.206 25.3748C235.866 24.9902 235.428 24.6817 234.893 24.4482C234.357 24.2148 233.704 24.0981 232.936 24.0981C232.028 24.0981 231.142 24.2984 230.278 24.7005C229.415 25.0997 228.586 25.6428 227.792 26.3302C226.997 27.0177 226.245 27.8306 225.532 28.7731C224.82 29.714 224.162 30.7214 223.557 31.7965C222.952 32.87 222.405 33.9898 221.92 35.1528C221.434 36.3172 221.022 37.4787 220.682 38.6344C220.341 39.7916 220.08 40.9142 219.897 42.0022C219.714 43.0888 219.623 44.0905 219.623 45.0056C219.623 46.3514 219.783 47.5246 220.105 48.5233C220.427 49.522 220.884 50.3549 221.476 51.0207C222.068 51.6864 222.793 52.1837 223.652 52.5092C224.508 52.8364 225.473 52.9994 226.543 52.9994C227.88 52.9994 229.125 52.8249 230.278 52.4805C231.433 52.1347 232.531 51.6807 233.579 51.1187C234.625 50.5565 235.636 49.9239 236.614 49.2192C237.59 48.5131 238.567 47.8041 239.545 47.0923C240.522 46.3804 241.517 45.7015 242.533 45.056C243.546 44.4089 244.622 43.8642 245.756 43.4203V47.6312Z" fill="white"/>
<path d="M147.647 50.5989C147.365 50.8959 147.003 51.2345 146.564 51.6121C146.126 51.991 145.632 52.3716 145.085 52.7563C144.539 53.1426 143.949 53.5157 143.313 53.8818C142.679 54.2464 142.031 54.5706 141.37 54.8531C140.707 55.1372 140.043 55.3648 139.374 55.532C138.706 55.7019 138.064 55.7871 137.451 55.7871C137.024 55.7871 136.595 55.712 136.161 55.5621C135.728 55.4153 135.336 55.1399 134.983 54.7421C134.63 54.3445 134.342 53.7938 134.113 53.0921C133.886 52.3888 133.772 51.4767 133.772 50.357C133.772 49.8843 133.807 49.3742 133.873 48.8265C133.941 48.2802 134.026 47.6894 134.134 47.0538C133.378 48.5801 132.523 50.0427 131.573 51.4406C130.62 52.8371 129.607 53.9322 128.535 54.7235C127.462 55.5131 126.353 56.1098 125.204 56.5148C124.058 56.9197 122.911 57.1228 121.762 57.1228C120.506 57.1228 119.316 56.9024 118.188 56.4657C117.061 56.0249 116.064 55.3706 115.2 54.4985C114.337 53.6283 113.651 52.5445 113.145 51.2474C112.638 49.9506 112.386 48.2083 112.386 46.0206C112.386 44.7107 112.537 43.3402 112.84 41.9078C113.144 40.4768 113.586 39.0313 114.165 37.5728C114.744 36.1144 115.447 34.6691 116.269 33.2381C117.093 31.8057 118.029 30.4454 119.081 29.1555C120.134 27.8658 121.284 26.6696 122.53 25.5685C123.778 24.469 125.109 23.5165 126.526 22.7124C127.942 21.9096 129.432 21.2784 130.996 20.8186C132.561 20.3589 134.186 20.1298 135.872 20.1298C136.324 20.1298 136.689 20.1674 136.962 20.2408C137.236 20.3159 137.442 20.4109 137.582 20.5247C137.722 20.64 137.811 20.7581 137.851 20.8792C137.892 21.0017 137.911 21.1083 137.911 21.2036C137.911 21.2713 137.908 21.3318 137.9 21.3866C137.895 21.4398 137.892 21.4801 137.892 21.5075V21.6099C138.259 21.8247 138.635 21.9571 139.017 22.0033C139.399 22.0508 139.775 22.0927 140.144 22.1258C140.513 22.159 140.861 22.231 141.19 22.3376C141.517 22.4472 141.802 22.659 142.048 22.976C142.295 23.2946 142.489 23.7571 142.632 24.3637C142.776 24.972 142.848 25.7961 142.848 26.8353C142.848 27.648 142.779 28.5631 142.638 29.5791C142.498 30.5952 142.302 31.6572 142.048 32.7639C141.795 33.8707 141.509 34.9949 141.192 36.1333C140.874 37.2703 140.553 38.3698 140.23 39.4304C139.906 40.4883 139.598 41.4927 139.304 42.4424C139.011 43.3906 138.737 44.2164 138.488 44.9167C138.436 45.5104 138.395 46.0625 138.36 46.5754C138.327 47.087 138.311 47.6204 138.311 48.1722C138.311 48.6032 138.321 48.9577 138.341 49.2342C138.36 49.5109 138.397 49.7301 138.452 49.8915C138.507 50.0528 138.582 50.1652 138.674 50.2243C138.769 50.2863 138.891 50.3151 139.04 50.3151C139.311 50.3151 139.651 50.2446 140.063 50.1033C140.475 49.9605 140.913 49.7791 141.38 49.5556C141.845 49.3336 142.331 49.0829 142.838 48.8062C143.344 48.5295 143.829 48.253 144.296 47.9763C144.761 47.6996 145.198 47.4459 145.603 47.2168C146.008 46.9861 146.345 46.7987 146.614 46.6489L147.647 50.5989ZM138.129 24.4043C137.653 24.27 137.16 24.1722 136.651 24.1117C136.141 24.0497 135.648 24.0193 135.173 24.0193C134.081 24.0193 133 24.2298 131.936 24.6476C130.871 25.0671 129.835 25.6364 128.831 26.3597C127.825 27.0817 126.867 27.9335 125.956 28.9119C125.047 29.8919 124.197 30.9454 123.408 32.0723C122.618 33.2006 121.908 34.3721 121.273 35.587C120.64 36.8035 120.094 38.0153 119.636 39.2244C119.175 40.4335 118.825 41.6081 118.583 42.7492C118.341 43.8906 118.218 44.9397 118.218 45.8995C118.218 48.2629 118.6 49.9693 119.362 51.014C120.126 52.0603 121.31 52.5847 122.918 52.5847C123.916 52.5847 124.864 52.3759 125.763 51.9565C126.661 51.5373 127.495 50.9882 128.264 50.3049C129.035 49.6235 129.74 48.7385 130.381 47.6519C131.022 46.5639 131.583 45.5811 132.062 44.7049C132.542 43.826 132.937 42.9799 133.247 42.1613C133.558 41.3442 133.78 40.6395 133.917 40.0444L138.129 24.4043Z" fill="white"/>
<path d="M152.638 46.4216C153.104 45.8148 153.614 45.1506 154.172 44.4257C154.728 43.7021 155.274 43.0105 155.811 42.3519C156.348 41.6932 156.887 41.0074 157.432 40.297C157.975 39.5865 158.376 39.1383 158.635 38.9523C159.036 38.6641 159.527 38.4163 160.11 38.2117C160.692 38.0084 161.339 37.9062 162.05 37.9062C162.413 37.9062 162.758 37.9911 163.088 38.1627C163.418 38.3342 163.706 38.5777 163.953 38.8947C164.198 39.2088 164.392 39.5923 164.535 40.0389C164.676 40.4885 164.748 40.9886 164.748 41.5406C164.748 42.0823 164.57 42.7237 164.214 43.4687C163.858 44.2123 163.486 44.8608 163.098 45.4142C162.709 45.9663 162.289 46.5195 161.836 47.0743C161.384 47.6264 160.963 48.1826 160.576 48.7431C160.187 49.3037 159.864 49.8585 159.605 50.412C159.347 50.9654 159.217 51.5186 159.217 52.0721C159.217 52.5463 159.329 52.8863 159.557 53.0896C159.783 53.2943 160.135 53.3965 160.615 53.3965C160.872 53.3965 161.155 53.3072 161.459 53.1299C161.761 52.9526 162.077 52.7178 162.4 52.428C162.722 52.137 163.05 51.8156 163.379 51.4597C163.709 51.1038 164.026 50.7419 164.33 50.3731C164.634 50.004 164.922 49.6525 165.193 49.3168C165.466 48.981 165.712 48.6941 165.932 48.4563L167.097 53.297C166.695 53.8404 166.187 54.3461 165.572 54.8116C164.959 55.2771 164.292 55.6807 163.574 56.0265C162.855 56.3695 162.112 56.6405 161.342 56.832C160.573 57.0265 159.832 57.1232 159.119 57.1232C158.188 57.1232 157.428 57.018 156.84 56.8062C156.251 56.5958 155.788 56.3147 155.452 55.9646C155.115 55.6158 154.886 55.221 154.762 54.7799C154.64 54.3404 154.579 53.885 154.579 53.4151C154.579 53.1113 154.614 52.7392 154.686 52.2984C154.756 51.8575 154.892 51.3602 155.094 50.8068C155.294 50.2534 155.575 49.6454 155.936 48.9796C156.3 48.3138 156.772 47.6003 157.354 46.8365C157.586 46.5989 157.801 46.3855 157.994 46.194C158.188 46.0036 158.357 45.8321 158.499 45.6808C158.641 45.5296 158.75 45.3868 158.83 45.2556C158.907 45.1246 158.945 44.9862 158.945 44.8407C158.945 44.564 158.897 44.3391 158.799 44.1692C158.703 43.9977 158.563 43.9125 158.381 43.9125C158.162 43.9125 157.879 44.0566 157.528 44.3465C157.165 44.6504 156.785 45.1578 156.385 45.8682L150.678 55.8391C150.368 56.309 150.058 56.6405 149.745 56.8336C149.436 57.0265 149.074 57.1232 148.659 57.1232C148.103 57.1232 147.663 57.0107 147.339 56.7846C147.017 56.561 146.77 56.2555 146.603 55.8722C146.435 55.4875 146.328 55.0437 146.283 54.5379C146.237 54.0335 146.214 53.4946 146.214 52.9222C146.214 52.1715 146.24 51.1786 146.292 49.9421C146.344 48.7072 146.422 47.3483 146.525 45.8696C146.629 44.3895 146.769 42.8418 146.943 41.2236C147.117 39.6066 147.326 38.0344 147.573 36.5083C147.669 35.9837 147.786 35.3423 147.926 34.583C148.066 33.8206 148.256 33.012 148.495 32.1533C148.734 31.293 148.985 30.3908 149.248 29.4439C149.511 28.4973 149.833 27.5822 150.215 26.6972C150.598 25.8139 151.028 24.9722 151.508 24.1724C151.987 23.3727 152.523 22.6707 153.12 22.0713C153.715 21.4704 154.369 20.9961 155.081 20.649C155.792 20.3002 156.57 20.1259 157.412 20.1259C158.072 20.1259 158.615 20.2325 159.041 20.4443C159.469 20.6575 159.809 20.9531 160.061 21.3334C160.313 21.714 160.491 22.1679 160.594 22.6954C160.698 23.2242 160.75 23.7976 160.75 24.416C160.75 25.5227 160.61 26.7159 160.332 27.9913C160.054 29.2683 159.703 30.5478 159.276 31.8319C158.848 33.1145 158.381 34.3625 157.878 35.573C157.373 36.785 156.887 37.8788 156.422 38.8558C155.957 39.8329 155.546 40.6573 155.19 41.3272C154.834 41.9974 154.598 42.4384 154.481 42.6473L152.173 46.1247L152.638 46.4216ZM156.436 24.4736C156.016 24.4736 155.655 24.6034 155.353 24.8612C155.052 25.1193 154.765 25.4867 154.496 25.9637C154.228 26.4421 153.958 27.0216 153.689 27.706C153.419 28.3904 153.115 29.1513 152.774 29.9902C152.59 30.7439 152.399 31.5191 152.205 32.3175C152.01 33.1159 151.853 33.9055 151.734 34.6866C151.616 35.4691 151.5 36.2374 151.385 36.9938C151.271 37.7506 151.163 38.4594 151.064 39.1194C150.869 40.7507 150.714 42.3549 150.598 43.9328C150.882 43.0653 151.195 42.1228 151.535 41.1053C151.874 40.0879 152.211 39.0835 152.545 38.0934C152.878 37.1004 153.192 36.1681 153.486 35.2949C153.78 34.4214 154.024 33.6808 154.222 33.0712C154.313 32.7887 154.444 32.4328 154.614 32.0048C154.784 31.5769 154.967 31.1185 155.163 30.627C155.359 30.1357 155.555 29.6242 155.751 29.0938C155.947 28.5636 156.127 28.0518 156.289 27.5605C156.454 27.069 156.588 26.6093 156.693 26.1813C156.797 25.7547 156.85 25.393 156.85 25.0947C156.85 24.6796 156.712 24.4736 156.436 24.4736Z" fill="white"/>
<path d="M177.652 52.9885C177.187 53.4151 176.607 53.8719 175.916 54.356C175.223 54.8418 174.476 55.2884 173.674 55.6963C172.872 56.1041 172.053 56.4427 171.219 56.7153C170.385 56.986 169.592 57.123 168.842 57.123C168.169 57.123 167.603 57.0293 167.144 56.8419C166.685 56.6547 166.312 56.3923 166.028 56.0553C165.742 55.718 165.539 55.3073 165.417 54.8215C165.293 54.3374 165.232 53.8028 165.232 53.2206C165.232 52.4063 165.323 51.4551 165.503 50.3687C165.877 48.119 166.116 46.8565 166.224 46.5784C166.4 46.0266 166.751 44.8016 167.281 42.9051C167.771 41.3603 168.075 40.3543 168.19 39.8874C168.254 39.5603 168.432 39.2663 168.725 39.0041C168.991 38.7693 169.294 38.5761 169.63 38.4249C169.967 38.275 170.317 38.1638 170.679 38.092C171.042 38.0199 171.369 37.9838 171.661 37.9838C172.194 37.9838 172.557 38.0832 172.747 38.2849C172.938 38.4852 173.034 38.7534 173.034 39.0906C173.034 39.3759 172.968 39.7765 172.834 40.2967C172.701 40.817 172.55 41.4094 172.38 42.0736C172.21 42.7393 171.958 43.5939 171.625 44.6388C171.291 45.6849 171.063 46.5757 170.942 47.3121C170.818 48.05 170.666 48.7834 170.48 49.5111C170.293 50.2388 170.2 50.9003 170.2 51.494C170.2 52.0762 170.265 52.5389 170.395 52.882C170.523 53.2247 170.788 53.3963 171.19 53.3963C171.656 53.3963 172.174 53.2335 172.743 52.9107C173.311 52.588 173.887 52.1959 174.469 51.7362C175.051 51.2778 175.62 50.8024 176.178 50.3095C176.734 49.818 177.225 49.3972 177.652 49.0486V52.9885ZM168.977 32.6186C168.977 32.3175 169.042 31.9772 169.172 31.5997C169.301 31.2207 169.512 30.8648 169.803 30.5319C170.094 30.1974 170.481 29.9179 170.967 29.6889C171.452 29.4596 172.056 29.3458 172.781 29.3458C173.233 29.3458 173.661 29.3976 174.063 29.5028C174.464 29.6067 174.812 29.7681 175.109 29.9828C175.407 30.1974 175.644 30.4829 175.818 30.8344C175.994 31.1889 176.08 31.6054 176.08 32.0882C176.08 32.5336 176.01 32.963 175.867 33.3824C175.724 33.8003 175.498 34.1721 175.188 34.4992C174.877 34.825 174.485 35.09 174.014 35.2932C173.542 35.4949 172.975 35.596 172.315 35.596C171.177 35.596 170.336 35.325 169.793 34.7831C169.249 34.2412 168.977 33.5192 168.977 32.6186Z" fill="white"/>
<path d="M177.194 53.0657C177.194 52.4966 177.227 51.8336 177.29 51.0771C177.356 50.319 177.443 49.5206 177.554 48.6791C177.663 47.8388 177.792 46.9799 177.941 46.1067C178.09 45.2333 178.28 44.3025 178.513 43.311C178.747 42.3224 178.947 41.4966 179.115 40.838C179.283 40.1766 179.451 39.6333 179.62 39.2067C179.723 38.9214 179.827 38.6951 179.929 38.5264C180.033 38.3593 180.153 38.2266 180.29 38.1302C180.425 38.0321 180.592 37.9674 180.794 37.9357C180.994 37.9025 181.243 37.8866 181.54 37.8866C181.877 37.8866 182.14 37.9025 182.327 37.9357C182.514 37.9674 182.654 38.0452 182.743 38.1677C182.834 38.2916 182.889 38.4688 182.909 38.7009C182.928 38.9343 182.938 39.2513 182.938 39.6535C182.938 40.1319 182.905 40.8106 182.841 41.6912C182.776 42.5717 182.758 43.3411 182.784 44.0012H182.995C183.255 43.4839 183.579 42.8052 183.967 41.9635C184.356 41.1218 184.762 40.4229 185.19 39.8667C185.616 39.3105 186.102 38.8406 186.645 38.4587C187.188 38.0768 187.816 37.8866 188.527 37.8866C188.773 37.8866 189.012 37.9285 189.246 38.0135C189.478 38.097 189.682 38.2167 189.856 38.3708C190.031 38.5264 190.171 38.7182 190.274 38.9445C190.377 39.1708 190.428 39.4272 190.428 39.7111C190.428 39.9316 190.397 40.2385 190.332 40.6333C190.267 41.0281 190.165 41.5427 190.022 42.1767C189.878 42.8109 189.776 43.3312 189.711 43.7389C189.646 44.1469 189.614 44.4855 189.614 44.7579C189.614 45.2234 189.659 45.6124 189.75 45.9237C189.841 46.2336 189.96 46.4829 190.108 46.67C190.257 46.8574 190.426 46.99 190.613 47.0679C190.801 47.1457 190.999 47.1846 191.205 47.1846C191.787 47.1846 192.389 47.055 193.01 46.7955C193.631 46.5377 194.2 46.2464 194.717 45.9237C195.326 45.5475 195.92 45.1209 196.503 44.6412L196.212 49.1833C195.876 49.4039 195.494 49.6504 195.066 49.9214C194.64 50.1937 194.184 50.4488 193.699 50.6894C193.213 50.9272 192.709 51.1289 192.185 51.2902C191.662 51.4516 191.127 51.5324 190.584 51.5324C189.614 51.5324 188.832 51.3349 188.236 50.9401C187.64 50.5453 187.169 50.028 186.819 49.388C186.471 48.7468 186.211 48.029 186.043 47.2322C185.874 46.4366 185.739 45.6311 185.635 44.8154H185.325L181.852 54.5024C181.67 55.0068 181.499 55.4249 181.337 55.7534C181.176 56.0849 181.01 56.3529 180.842 56.5603C180.674 56.768 180.493 56.9121 180.298 56.9971C180.104 57.082 179.892 57.1239 179.659 57.1239C179.127 57.1239 178.701 57.01 178.378 56.7839C178.054 56.5562 177.804 56.2521 177.63 55.8715C177.456 55.4896 177.339 55.0559 177.281 54.5704C177.222 54.0846 177.194 53.5846 177.194 53.0657Z" fill="white"/>
<path d="M216.096 52.1285C215.798 52.5479 215.401 53.0378 214.902 53.6011C214.405 54.1647 213.844 54.7009 213.223 55.211C212.602 55.7212 211.937 56.1519 211.225 56.5051C210.513 56.8596 209.802 57.0355 209.09 57.0355C208.231 57.0355 207.514 56.7629 206.94 56.2196C206.367 55.6749 205.871 54.8853 205.453 53.8463C205.141 54.2066 204.756 54.571 204.299 54.9428C203.843 55.3133 203.344 55.6491 202.802 55.9503C202.261 56.2514 201.697 56.498 201.111 56.6895C200.523 56.8826 199.937 56.9777 199.35 56.9777C198.729 56.9777 198.124 56.8509 197.535 56.5958C196.947 56.3407 196.427 55.9763 195.973 55.4993C195.521 55.0223 195.158 54.4414 194.887 53.757C194.615 53.071 194.479 52.2986 194.479 51.4367C194.479 50.4698 194.616 49.4768 194.89 48.4579C195.162 47.4392 195.586 46.3367 196.158 45.1506C196.731 43.9632 197.345 42.9385 198.003 42.074C198.66 41.2107 199.379 40.457 200.16 39.8115C200.941 39.1657 201.764 38.6542 202.63 38.2736C203.495 37.8933 204.376 37.7031 205.275 37.7031C205.574 37.7031 205.808 37.7621 205.978 37.8788C206.146 37.9971 206.288 38.1311 206.397 38.2824C206.508 38.4322 206.616 38.5793 206.72 38.7218C206.824 38.8676 206.953 38.9712 207.11 39.0361C207.266 39.1024 207.426 39.1441 207.587 39.1643C207.752 39.183 207.917 39.1931 208.086 39.1931C208.23 39.1931 208.375 39.1903 208.525 39.183C208.675 39.1772 208.822 39.1744 208.965 39.1744C209.159 39.1744 209.342 39.1931 209.511 39.232C209.681 39.2725 209.83 39.3575 209.96 39.4871C210.088 39.6197 210.191 39.8013 210.261 40.0361C210.332 40.2726 210.368 40.5923 210.368 40.9973C210.368 41.617 210.303 42.3031 210.173 43.0568C210.044 43.8105 209.895 44.5843 209.73 45.3739C209.562 46.1652 209.372 47.0674 209.158 48.0803C208.944 49.0935 208.838 49.9467 208.838 50.6399C208.838 51.2336 208.892 51.6975 209.003 52.0304C209.113 52.3663 209.349 52.532 209.711 52.532C209.983 52.532 210.267 52.4657 210.565 52.3301C210.862 52.1961 211.163 52.0203 211.467 51.8013C211.771 51.5838 212.075 51.3372 212.379 51.0605C212.683 50.7854 212.971 50.4999 213.244 50.2045C213.876 49.5114 214.517 48.7289 215.166 47.857L216.096 52.1285ZM199.447 50.6081C199.447 50.9424 199.47 51.2651 199.516 51.5794C199.561 51.8936 199.641 52.1731 199.758 52.4211C199.875 52.6674 200.03 52.8677 200.225 53.0205C200.419 53.1732 200.666 53.251 200.962 53.251C201.442 53.251 201.877 53.0422 202.265 52.6257C202.654 52.2093 202.991 51.7076 203.277 51.121C203.562 50.5347 203.792 49.9294 203.967 49.3039C204.142 48.6771 204.255 48.1568 204.306 47.7403L205.754 41.4296C205.223 41.4296 204.706 41.5609 204.203 41.8247C203.697 42.0869 203.222 42.4428 202.775 42.8924C202.33 43.3407 201.918 43.8536 201.543 44.4317C201.167 45.0095 200.798 45.7213 200.437 46.5671C200.075 47.4146 199.819 48.1582 199.67 48.7995C199.522 49.4407 199.447 50.0432 199.447 50.6081Z" fill="white"/>
<path d="M254.175 43.7249C256.224 43.072 260.686 43.9569 259.673 48.1835C259.421 49.2356 259.315 49.9907 259.315 50.9534C259.315 51.4809 259.391 51.9031 259.546 52.2201C259.702 52.5371 259.902 52.6943 260.149 52.6943C260.458 52.6943 260.788 52.6294 261.139 52.4982C261.487 52.3686 261.837 52.1971 262.186 51.9896C262.534 51.7792 262.877 51.5398 263.215 51.2732C263.55 51.0052 263.867 50.7271 264.166 50.4389C264.877 49.7731 265.575 49.015 266.26 48.1648L266.592 53.3327C266.358 53.5026 266.063 53.716 265.709 53.9711C265.353 54.2262 264.958 54.4972 264.524 54.781C264.091 55.0662 263.622 55.3559 263.118 55.6485C262.613 55.9397 262.105 56.1989 261.594 56.4224C261.082 56.6471 260.572 56.8332 260.061 56.9786C259.549 57.1241 259.061 57.1976 258.595 57.1976C258.011 57.1976 257.792 56.9699 257.176 56.2063C256.148 54.9279 256.246 51.991 256.287 50.1449C256.336 47.9747 253.064 47.5048 251.484 50.4734C250.872 51.6236 250.141 52.6985 249.572 53.8629C249.287 54.4394 249.053 54.941 248.873 55.369C248.692 55.7983 248.515 56.1427 248.34 56.4049C248.164 56.666 247.974 56.8647 247.767 56.9973C247.559 57.1313 247.296 57.1976 246.971 57.1976C246.543 57.1976 246.208 57.0839 245.961 56.8518C245.716 56.6197 245.529 56.3142 245.4 55.9309C245.27 55.5476 245.186 55.1139 245.148 54.6281C245.109 54.141 245.088 53.6424 245.088 53.1324C245.088 52.2431 245.099 51.0803 245.117 49.6419C245.137 48.2024 245.198 46.6086 245.302 44.8576C245.405 43.1081 245.594 41.2936 245.869 39.4173C246.143 37.5411 246.415 35.6733 246.688 33.8173C246.96 31.9583 247.363 30.1914 247.902 28.5127C248.44 26.8337 249.094 25.3567 249.864 24.0797C250.635 22.8029 251.539 21.7883 252.575 21.0376C253.61 20.2852 254.804 19.9107 256.15 19.9107C256.849 19.9107 257.421 20.0145 257.868 20.2219C258.315 20.4294 258.67 20.7233 258.936 21.1011C259.201 21.4787 259.385 21.9297 259.489 22.4571C259.591 22.9845 259.644 23.5739 259.644 24.2238C259.644 25.1923 259.508 26.263 259.235 27.4403C258.964 28.6177 258.606 29.8399 258.159 31.1065C257.714 32.3748 257.205 33.6587 256.636 34.9587C256.066 36.2599 255.483 37.5208 254.89 38.7444C254.295 39.9664 253.708 41.1207 253.133 42.2045C252.557 43.2896 251.39 45.3201 250.951 46.1445C250.951 46.1445 252.34 44.3099 254.175 43.7249ZM253.72 33.1269C254.485 31.1468 255.04 29.4782 255.383 28.1206C255.727 26.7617 255.898 25.7586 255.898 25.1115C255.898 24.1273 255.76 23.6374 255.485 23.6374C255.148 23.6374 254.649 24.1865 253.989 25.286C253.33 26.3855 252.553 27.9823 251.661 30.0777C251.441 30.7895 251.236 31.5274 251.049 32.2896C250.862 33.0535 250.713 33.8159 250.602 34.5768C250.493 35.339 250.385 36.0856 250.278 36.8219C250.171 37.557 250.072 38.2515 249.978 38.9044C249.693 40.4406 249.477 41.9437 249.326 43.415C249.676 42.5994 250.058 41.713 250.473 40.7546C250.887 39.7979 251.297 38.8496 251.699 37.9115C252.101 36.9734 252.48 36.0884 252.835 35.2527C253.191 34.4182 253.487 33.7091 253.72 33.1269Z" fill="white"/>
<path d="M277.847 52.9885C277.382 53.4151 276.803 53.8719 276.111 54.356C275.418 54.8418 274.671 55.2884 273.87 55.6963C273.067 56.1041 272.249 56.4427 271.414 56.7153C270.58 56.986 269.786 57.123 269.037 57.123C268.365 57.123 267.798 57.0293 267.339 56.8419C266.879 56.6547 266.507 56.3923 266.224 56.0553C265.938 55.718 265.735 55.3073 265.611 54.8215C265.489 54.3374 265.427 53.8028 265.427 53.2206C265.427 52.4063 265.517 51.4551 265.699 50.3687C266.072 48.119 266.311 46.8565 266.418 46.5784C266.595 46.0266 266.947 44.8016 267.475 42.9051C267.967 41.3603 268.271 40.3543 268.386 39.8874C268.449 39.5603 268.627 39.2663 268.921 39.0041C269.187 38.7693 269.488 38.5761 269.825 38.4249C270.163 38.275 270.513 38.1638 270.874 38.092C271.236 38.0199 271.565 37.9838 271.855 37.9838C272.39 37.9838 272.753 38.0832 272.943 38.2849C273.133 38.4852 273.229 38.7534 273.229 39.0906C273.229 39.3759 273.162 39.7765 273.03 40.2967C272.897 40.817 272.744 41.4094 272.574 42.0736C272.406 42.7393 272.154 43.5939 271.819 44.6388C271.486 45.6849 271.259 46.5757 271.136 47.3121C271.014 48.05 270.861 48.7834 270.674 49.5111C270.488 50.2388 270.396 50.9003 270.396 51.494C270.396 52.0762 270.459 52.5389 270.589 52.882C270.719 53.2247 270.984 53.3963 271.386 53.3963C271.851 53.3963 272.368 53.2335 272.937 52.9107C273.507 52.588 274.083 52.1959 274.665 51.7362C275.247 51.2778 275.816 50.8024 276.372 50.3095C276.93 49.818 277.421 49.3972 277.847 49.0486V52.9885ZM269.173 32.6186C269.173 32.3175 269.238 31.9772 269.367 31.5997C269.495 31.2207 269.706 30.8648 269.998 30.5319C270.288 30.1974 270.677 29.9179 271.162 29.6889C271.648 29.4596 272.252 29.3458 272.976 29.3458C273.429 29.3458 273.857 29.3976 274.257 29.5028C274.658 29.6067 275.008 29.7681 275.305 29.9828C275.603 30.1974 275.839 30.4829 276.014 30.8344C276.188 31.1889 276.276 31.6054 276.276 32.0882C276.276 32.5336 276.205 32.963 276.061 33.3824C275.92 33.8003 275.694 34.1721 275.384 34.4992C275.073 34.825 274.681 35.09 274.208 35.2932C273.737 35.4949 273.171 35.596 272.511 35.596C271.371 35.596 270.531 35.325 269.988 34.7831C269.445 34.2412 269.173 33.5192 269.173 32.6186Z" fill="white"/>
<path d="M277.12 49.842C277.12 50.2267 277.78 49.2669 277.767 49.6329C277.754 49.9976 277.748 50.339 277.748 50.6576C277.748 50.9746 277.761 51.2642 277.787 51.5237C277.813 51.7831 277.868 52.0051 277.953 52.1895C278.036 52.3769 278.153 52.5224 278.302 52.629C278.45 52.7342 278.653 52.7876 278.914 52.7876C279.055 52.7876 279.214 52.701 279.388 52.5281C279.564 52.3566 279.764 52.11 279.99 51.7917C280.216 51.4747 280.471 51.0957 280.757 50.6576C281.04 50.2195 281.365 49.7409 281.726 49.225C281.598 48.454 281.203 47.3805 280.542 45.9985C279.508 43.8497 278.738 41.998 278.234 40.4459C278.208 40.3667 278.195 40.3004 278.195 40.247C278.195 40.0078 278.291 39.7555 278.486 39.4905C278.679 39.2253 278.93 38.9804 279.232 38.7541C279.536 38.5278 279.866 38.339 280.224 38.1864C280.578 38.0349 280.918 37.9571 281.242 37.9571C281.5 37.9571 281.721 38.0047 281.901 38.0968C282.121 38.202 282.256 38.3448 282.328 38.5149C283.294 40.8249 283.596 41.1895 285.239 44.785C285.343 44.4535 286.462 43.3455 288.597 41.4619C289.398 40.7443 290.284 40.0539 291.256 39.3911C291.578 39.1648 291.882 39.0062 292.167 38.9125C292.451 38.8204 292.711 38.7743 292.944 38.7743C293.241 38.7743 293.503 38.8376 293.729 38.9631C293.956 39.0897 294.147 39.2585 294.301 39.4703C294.457 39.6821 294.574 39.9286 294.651 40.2067C294.729 40.4862 294.768 40.7717 294.768 41.0627C294.768 41.4879 294.683 41.8956 294.516 42.2877C294.347 42.6781 294.09 42.988 293.739 43.2129C292.627 43.9291 291.669 44.6596 290.867 45.4018C289.599 46.5706 288.357 47.8041 287.141 49.1055C287.424 49.6329 287.714 50.1316 288.005 50.5998C288.295 51.0697 288.577 51.4774 288.849 51.8262C289.12 52.1736 289.382 52.4473 289.635 52.6462C289.887 52.8437 290.123 52.9432 290.343 52.9432C290.627 52.9432 290.975 52.8769 291.381 52.7429C291.789 52.6087 292.222 52.4314 292.682 52.2067C293.14 51.9834 293.61 51.7283 294.09 51.4443C294.566 51.1604 295.023 50.8593 295.457 50.545C295.889 50.2294 296.285 49.9182 296.641 49.6099C296.996 49.3014 297.284 49.0132 297.504 48.7466C297.504 49.1847 297.507 49.5825 297.514 49.9414C297.52 50.3001 297.524 50.6417 297.524 50.9659C297.524 51.2916 297.526 51.6015 297.533 51.8955C297.539 52.1909 297.543 52.5194 297.543 52.881C297.117 53.2961 296.566 53.7589 295.893 54.2674C295.221 54.7748 294.473 55.2532 293.652 55.6984C292.83 56.1453 291.954 56.5214 291.022 56.8283C290.091 57.1382 289.159 57.2908 288.228 57.2908C287.698 57.2908 287.028 56.9437 286.22 56.2491C285.41 55.5529 284.541 54.4304 283.609 52.8769C283.053 53.5038 282.523 54.0816 282.017 54.6134C281.513 55.1466 281.04 55.6135 280.601 56.0127C280.162 56.4146 279.748 56.7275 279.359 56.9522C278.972 57.1771 278.616 57.2908 278.291 57.2908C277.645 57.2908 277.114 57.1338 276.701 56.8212C276.286 56.5069 275.953 56.1064 275.701 55.6178C275.449 55.1293 275.267 54.5975 275.158 54.0254C275.048 53.4534 274.979 52.8999 274.953 52.3695L277.12 49.842Z" fill="white"/>
</g>
<defs>
<clipPath id="clip0_19_101">
<rect width="297.6" height="96" fill="white"/>
</clipPath>
</defs>
</svg>
